<svg xmlns="http://www.w3.org/2000/svg" version="1.1" xmlns:xlink="http://www.w3.org/1999/xlink" xmlns:svgjs="http://svgjs.dev/svgjs" width="100%" height="100%" viewBox="0 0 1000 600"><rect width="1000" height="600" x="0" y="0" fill="#ffffff"/><g><circle r="166.66666666666666" cx="445.0903422037761" cy="467.3125631746153" fill="#ff55aa" transform="matrix(0.4489560894053963,0,0,0.4489560894053962,0,90.1971897988841)"/><path d="M347.4367715762983 469.69069044750887Q347.4367715762983 440.74523059368795 348.3064943136901 425.28047316944003L348.3064943136901 425.28047316944003L348.19777897151613 425.28047316944003L333.5755654491165 423.2692393392215Q332.35251784965925 419.7359907185673 331.6730469610719 415.4689135382388Q330.9935760724846 411.22901519345373 330.9935760724846 407.2065475330167L330.9935760724846 407.2065475330167Q330.9935760724846 404.1625179521454 331.48279511226747 400.5205539893172L331.48279511226747 400.5205539893172Q343.14251556042626 396.60680167105414 361.95026975652394 394.45967366311805Q380.7852027881651 392.3125456551821 397.88069034502274 392.3125456551821L397.88069034502274 392.3125456551821Q412.5029038674224 392.3125456551821 423.0211132227545 394.5412101697486Q433.53932257808657 396.79705351985854 440.63299865493843 404.67891582747177Q447.7538535673338 412.56077813508495 447.7538535673338 428.13425090150685L447.7538535673338 428.13425090150685Q447.7538535673338 434.24948889879295 444.41085679548405 441.94109935760173Q441.0678600236343 449.63270981641045 435.68645058602254 456.37306103119687Q430.2778623128673 463.11341224598334 424.4615915065596 466.728197373268L424.4615915065596 466.728197373268Q431.7183405966725 467.97842380826876 437.969472771676 471.7562819488144Q444.2206049466796 475.53414008936 448.1343572649427 481.97552411316804Q452.0752884187493 488.4169081369761 452.0752884187493 497.22285085306805L452.0752884187493 497.22285085306805Q452.0752884187493 508.9641078078574 447.56360171852936 517.4710833329709Q443.07909385385284 525.9780588580845 434.7623701775438 531.5225413089572L434.7623701775438 531.5225413089572Q418.536605358078 542.3125390197242 388.9116746156698 542.3125390197242L388.9116746156698 542.3125390197242Q377.251954167511 542.3125390197242 368.22858076707104 541.8776776510283Q359.1780285310876 541.4699951178759 351.5407757433658 540.3013051895057L351.5407757433658 540.3013051895057Q347.4367715762983 518.1505542215582 347.4367715762983 469.69069044750887L347.4367715762983 469.69069044750887ZM401.7944426632858 463.68416779239675Q404.2948955332873 456.6992070577188 406.06151984361435 445.96356701803876Q407.8281441539414 435.20074814281526 408.2086478515503 428.4332180924853L408.2086478515503 428.4332180924853Q407.7194288117675 427.5634953550935 403.34363628926496 426.9383821375931Q398.940664931219 426.3132689200928 391.9557041965411 426.3132689200928L391.9557041965411 426.3132689200928Q389.7542185175181 426.3132689200928 384.61741859979776 426.61223611107124L384.61741859979776 426.61223611107124Q383.82923236903645 448.1106950259748 382.3072175786008 465.20618258283235L382.3072175786008 465.20618258283235L391.9557041965411 464.44517518761455L401.7944426632858 463.68416779239675ZM394.26590521773807 517.2808314841664L397.0381464431744 517.2808314841664Q405.0559029285051 517.2808314841664 408.4804362069853 516.6285394311226L408.4804362069853 516.6285394311226Q410.87217373481275 515.1880611473174 412.74751338731386 511.46456067785874Q414.5956742042714 507.74106020840014 415.57411228383717 503.28373117926714Q416.5253715278595 498.85358098567764 416.5253715278595 495.3203323650235L416.5253715278595 495.3203323650235Q414.8131048886193 490.3466054605641 399.40270513545835 490.3466054605641L399.40270513545835 490.3466054605641Q392.9069634405634 490.3466054605641 384.5087032576238 491.1891493624124L384.5087032576238 491.1891493624124Q382.2256810719703 491.48811655339085 381.0569911436001 491.48811655339085L381.0569911436001 491.48811655339085L380.7852027881651 505.43085918720317Q380.6764874459912 507.55080835959564 380.5949509393607 510.32304958503204Q380.48623559718675 513.0952908104684 380.48623559718675 516.5198240889486L380.48623559718675 516.5198240889486Q386.79172544327724 517.2808314841664 394.26590521773807 517.2808314841664L394.26590521773807 517.2808314841664ZM462.75657078734235 519.4823171631895Q462.75657078734235 514.617305600904 464.57755276875645 509.6435786964447Q466.39853475017054 504.6698517919853 470.2307505618032 500.2668804339393L470.2307505618032 500.2668804339393Q484.17349319561544 506.3821184312255 494.5286295376866 509.6435786964447Q504.9109447153012 512.8778601261204 515.8911942748725 512.8778601261204L515.8911942748725 512.8778601261204Q517.9024281050913 512.8778601261204 520.0495561130272 512.4973564285115Q522.1966841209633 512.1168527309026 523.446910555964 511.46456067785874L523.446910555964 511.46456067785874Q523.9089507602032 510.4045860916625 524.2079179511818 508.7466771235094Q524.4797063066167 507.0615893198128 524.4797063066167 506.0016147336165L524.4797063066167 506.0016147336165Q524.4797063066167 501.3268550201356 519.9951984419401 497.98385824828586Q515.5106905772639 494.6408614764361 508.1452261449769 491.2978647045864L508.1452261449769 491.2978647045864L504.8022293731272 489.66713457197676Q490.47898304170604 482.30167013969 481.836113338875 476.4310416622953Q473.193243636044 470.56041318490065 467.2138998164753 460.96628423804736Q461.23455599690675 451.34497645565057 461.23455599690675 437.40223382183825L461.23455599690675 437.40223382183825Q461.23455599690675 416.96374949313093 472.6496669251741 404.62455815638475Q484.0647778534415 392.3125456551821 509.01494888236874 392.3125456551821L509.01494888236874 392.3125456551821Q530.3231559484677 392.3125456551821 542.7438837918444 394.894535031814L542.7438837918444 394.894535031814Q547.9078625451084 397.9385646126853 551.7672571922844 401.22720371344803Q555.653830675004 404.5430216497543 559.1870792956581 409.2177813632352L559.1870792956581 409.2177813632352Q559.1870792956581 415.90377490693464 557.8824951895706 423.7041007079174Q556.6050899190263 431.4772476733566 554.3492465689164 437.9729893682516Q552.0934032188063 444.46873106314666 549.538592677718 447.34968763075693L549.538592677718 447.34968763075693Q547.3371069986949 448.3824833814097 544.6464022798891 448.9260600922796Q541.9828763966268 449.442457967606 538.0691240783635 449.442457967606L538.0691240783635 449.442457967606Q533.9379410757524 449.442457967606 531.3831305346641 448.87170242119265Q528.8011411580321 448.30094687477924 526.5996554790092 446.96918393314803L526.5996554790092 446.96918393314803L523.6371624047683 427.0742763153106Q518.0926799538956 425.55226152487495 511.8687266144356 424.8456118007441Q505.67195211051904 424.1117832410698 503.47046643149605 424.2204985832438L503.47046643149605 424.2204985832438Q499.93721781084184 425.8512287158534 498.63263370475414 428.7593641190072Q497.3552284342099 431.66749952216105 497.3552284342099 435.68996718259814L497.3552284342099 435.68996718259814Q497.3552284342099 439.98422319847015 499.69260829095043 443.08261045042843Q502.02998814769086 446.2081765379302 505.37298491954056 448.19223153260526Q508.71598169139037 450.2034653628238 513.988675786828 452.70391823282523L513.988675786828 452.70391823282523L518.1742164605262 454.79668856967425Q531.8451707389036 461.97190115315664 539.6726753754297 467.3261317552249Q547.5273588474995 472.65318352174967 552.8272317784806 480.8340130203413Q558.127104709462 489.01484251893294 558.127104709462 500.5658476249178L558.127104709462 500.5658476249178Q558.127104709462 514.0465500544907 551.0606074681536 523.7493943435179Q543.9941102268451 533.4250597970017 532.9051453250997 537.7464946484172L532.9051453250997 537.7464946484172Q526.8714438344441 540.1110533407011 519.6146947443312 541.1710279268975Q512.3579456542184 542.2310025130937 502.79099554290866 542.2310025130937L502.79099554290866 542.2310025130937Q496.29525384801366 542.2310025130937 488.8482529090964 540.6002723804841Q481.4012519701791 538.9695422478744 474.3619335644142 534.8655380808069Q467.3497939941928 530.7615339137394 463.13707448495126 523.8852885212355L463.13707448495126 523.8852885212355Q462.75657078734235 522.0643065398212 462.75657078734235 519.4823171631895L462.75657078734235 519.4823171631895Z " fill="#fad744" transform="matrix(0.4489560894053963,0,0,0.4489560894053962,0,90.1971897988841)"/><path d="M710.7910232654542 472.86617362208466Q710.7910232654542 445.22776677685493 711.6214730485973 430.46133157034257L711.6214730485973 430.46133157034257L711.5176668257044 430.46133157034257L697.5557298466118 428.54091644682427Q696.387909839067 425.1672142028056 695.7391209459864 421.09281995426Q695.0903320529059 417.04437726143766 695.0903320529059 413.203547014401L695.0903320529059 413.203547014401Q695.0903320529059 410.29697277340034 695.5574600559238 406.8194643064888L695.5574600559238 406.8194643064888Q706.6906774611854 403.0824402823451 724.6491540216539 401.03226738021067Q742.6335821378456 398.98209447807625 758.9571106877512 398.98209447807625L758.9571106877512 398.98209447807625Q772.9190476668438 398.98209447807625 782.96229973173 401.11012204738034Q793.0055517966164 403.2641011724076 799.7789078403769 410.79005233214156Q806.5782154398606 418.3160034918754 806.5782154398606 433.18624492128066L806.5782154398606 433.18624492128066Q806.5782154398606 439.0253449590053 803.3861740859045 446.36963522867666Q800.1941327319483 453.71392549834803 795.0557246987507 460.14991131770665Q789.89136510983 466.5858971370653 784.3377321850608 470.0374540482536L784.3377321850608 470.0374540482536Q791.2667975631606 471.2312256115218 797.2356553795013 474.8384918570494Q803.204513195842 478.445758102577 806.9415372199857 484.59627680898024Q810.7045127998526 490.7467955153835 810.7045127998526 499.15509956970686L810.7045127998526 499.15509956970686Q810.7045127998526 510.36617164213806 806.396554549798 518.4890085835061Q802.1145478554666 526.6118455248741 794.1733718041612 531.905962892411L794.1733718041612 531.905962892411Q778.6802930373987 542.2087305145294 750.3930972990885 542.2087305145294L750.3930972990885 542.2087305145294Q739.2598798938269 542.2087305145294 730.6439633937179 541.7935056229579Q722.0020953378854 541.4042322871096 714.7097081796604 540.2883153910111L714.7097081796604 540.2883153910111Q710.7910232654542 519.1377974765865 710.7910232654542 472.86617362208466L710.7910232654542 472.86617362208466ZM762.6941347118949 467.13087980725294Q765.0816778384312 460.4613299863853 766.7685289604406 450.21046547571325Q768.4553800824499 439.933649409318 768.8187018625749 433.47171203423613L768.8187018625749 433.47171203423613Q768.351573859557 432.64126225109305 764.1733733881185 432.044376469459Q759.9692213609568 431.44749068782494 753.2996715400892 431.44749068782494L753.2996715400892 431.44749068782494Q751.1975955265083 431.44749068782494 746.2927514948198 431.73295780078035L746.2927514948198 431.73295780078035Q745.5401563788463 452.26063837784767 744.0868692583459 468.5841669277533L744.0868692583459 468.5841669277533L753.2996715400892 467.8575233675031L762.6941347118949 467.13087980725294ZM755.5055537765629 518.3073476934435L758.1526124603314 518.3073476934435Q765.8083213986814 518.3073476934435 769.0782174198072 517.6845103560862L769.0782174198072 517.6845103560862Q771.3619543234505 516.3090779027555 773.1526116683527 512.7537147686744Q774.9173174575318 509.19835163459317 775.8515734635677 504.94229649598503Q776.7598779138804 500.71219291310007 776.7598779138804 497.3384906690814L776.7598779138804 497.3384906690814Q775.1249299033175 492.5893559717321 760.4103978082516 492.5893559717321L760.4103978082516 492.5893559717321Q754.2079759904019 492.5893559717321 746.1889452719269 493.3938541991519L746.1889452719269 493.3938541991519Q744.0090145911763 493.67932131210733 742.8930976950778 493.67932131210733L742.8930976950778 493.67932131210733L742.6335821378456 506.9924693981194Q742.5297759149527 509.0166907445306 742.451921247783 511.66374942829907Q742.3481150248903 514.3108081120675 742.3481150248903 517.5807041331933L742.3481150248903 517.5807041331933Q748.3688759526773 518.3073476934435 755.5055537765629 518.3073476934435L755.5055537765629 518.3073476934435ZM851.2927459509692 480.2623670032024Q856.6647179856759 480.2623670032024 863.2045100279274 481.3523323435777Q869.7183505144558 482.46824923967614 875.1941287720553 483.9993910273461L875.1941287720553 483.9993910273461L875.1941287720553 481.1706714535151Q875.1941287720553 478.34195187968413 875.0643709934392 474.89039496849585Q874.934613214823 471.4128865015843 874.6491461018676 470.322921161209L874.6491461018676 470.322921161209Q873.8186963187245 468.7658278178158 869.9519145159647 467.13087980725294Q866.0851327132049 465.49593179669006 857.3135068787564 465.49593179669006L857.3135068787564 465.49593179669006Q851.9415348440498 465.49593179669006 846.2321925849413 466.8194611385743Q840.5228503258328 468.14299048045854 833.593784947733 470.322921161209L833.593784947733 470.322921161209Q829.8567609235893 464.12049934335937 827.6249271313923 458.5149633071438Q825.3930933391954 452.9094272709282 825.3930933391954 447.25198812326613L825.3930933391954 447.25198812326613Q825.3930933391954 445.51323388981035 825.6526088964275 443.77447965635463L825.6526088964275 443.77447965635463Q840.4449956586632 432.27794047096796 863.8792504767312 432.27794047096796L863.8792504767312 432.27794047096796Q876.829076782618 432.27794047096796 886.8723288475044 435.1845147119687Q896.9155809123907 438.1170405086926 903.3775182874725 446.4993930072927Q909.8654072182776 454.90769706161615 909.8654072182776 470.322921161209L909.8654072182776 470.322921161209Q909.8654072182776 485.37482348067687 906.3619471956429 499.4665182383855Q902.832535617285 513.5582129960942 902.7546809501152 513.8436801090495L902.7546809501152 513.8436801090495L915.9899743689576 508.18624096138757Q918.6370330527261 511.01496053521856 920.6872059548606 515.0634032280409Q922.737378856995 519.1377974765865 923.2823615271826 524.4319148441234L923.2823615271826 524.4319148441234Q922.0107352967448 527.1568281950616 917.7027770466901 531.4128833336697Q913.4207703523588 535.6429869165547 907.2183485345091 538.9388344934036Q901.0159267166595 542.2087305145294 894.2685222286223 542.2087305145294L894.2685222286223 542.2087305145294Q886.6906679574419 542.2087305145294 882.823886154682 537.7450629301355Q878.931152796199 533.2813953457417 878.931152796199 526.1706690775793L878.931152796199 526.1706690775793Q878.931152796199 522.1481779404801 880.1249243594672 518.0478321362114L880.1249243594672 518.0478321362114L877.400011008529 517.2173823530682Q874.8308069919301 531.6204957794555 866.5263091604996 536.9146131469925Q858.221811329069 542.2087305145294 848.2045108199061 542.2087305145294L848.2045108199061 542.2087305145294Q841.6128156662081 542.2087305145294 835.5142000712514 538.5236096018322Q829.3896329205712 534.8384886891349 825.5747542292579 527.7537139766957Q821.7339239822213 520.6948908199797 821.7339239822213 511.1966214252811L821.7339239822213 511.1966214252811Q821.7339239822213 496.0409128829204 829.3117782534016 488.1516399430614Q836.889632524582 480.2623670032024 851.2927459509692 480.2623670032024L851.2927459509692 480.2623670032024ZM861.6993197959806 515.0374516723177Q863.9830566996241 514.5703236692998 867.1231949421336 512.4682476557189Q870.2633331846433 510.36617164213806 872.7287309783493 507.4595974011374Q875.1941287720553 504.5270716044135 875.6612567750732 501.880012920645L875.6612567750732 501.880012920645L875.1162741048855 499.70008223989447Q870.2633331846433 499.05129334681396 864.7875549270439 499.05129334681396L864.7875549270439 499.05129334681396Q860.1422264525875 499.05129334681396 858.4034722191317 499.80388846278737L858.4034722191317 499.80388846278737Q855.496897978131 503.07378448391313 855.496897978131 507.0962756210123L855.496897978131 507.0962756210123Q855.496897978131 510.00284986201297 857.0020882100778 512.3903929885493Q858.5072784420246 514.7519845593623 861.6993197959806 515.0374516723177L861.6993197959806 515.0374516723177ZM933.0401464791134 481.45613856647054Q933.0401464791134 438.7658294017731 934.6750944896763 422.88347729916217L934.6750944896763 422.88347729916217L924.3723268675578 421.06686839853677Q922.1923961868073 412.6585643442134 922.1923961868073 402.9786340594522L922.1923961868073 402.9786340594522Q923.5418770844148 401.26583138171964 927.3048526642817 398.69662736512083Q931.0418766884254 396.15337490424525 935.9986238315606 394.23295978072696Q940.9813225304189 392.3125446572086 945.9121181178308 392.3125446572086L945.9121181178308 392.3125446572086Q958.1353008634675 392.3125446572086 964.9346084629512 397.60666202474556Q971.733916062435 402.9007793922826 971.733916062435 415.6689448081069L971.733916062435 415.6689448081069Q971.733916062435 422.05302751601914 970.8256116121223 435.2364178234151Q969.8913556060864 448.4198081308111 967.4259578123805 467.20873447442256Q964.9865115743977 486.0236123737574 960.8602142144057 506.4474867279318L960.8602142144057 506.4474867279318L962.4173075577988 507.3557911782445Q969.6318400488541 497.4163453362511 976.2754383139985 485.4267265921233Q982.9449881348662 473.4371078479955 986.8636730490724 463.1083886701538L986.8636730490724 463.1083886701538L979.0263032206599 461.1879735466355Q977.9363378802847 454.9855517287858 977.9363378802847 446.4993930072927L977.9363378802847 446.4993930072927L977.9363378802847 443.22949698616696Q981.3878947914731 438.8436840689427 987.4605588307065 435.57378804781695Q993.5332228699401 432.27794047096796 1002.5643642616208 432.27794047096796L1002.5643642616208 432.27794047096796Q1009.0522531924258 432.27794047096796 1013.775436334052 434.6914351532275Q1018.5245710314013 437.104929835487 1021.0937750480001 441.41288808554157Q1023.6370275088758 445.6948947798729 1023.6370275088758 451.2485277046421L1023.6370275088758 451.2485277046421Q1023.6370275088758 455.45267973180376 1022.365401278438 459.13780064450106Q1021.0937750480001 462.8488731129216 1018.5245710314013 466.9492189171904L1018.5245710314013 466.9492189171904Q1011.9588274334266 477.35579276220176 995.6352988835209 496.5080408859384L995.6352988835209 496.5080408859384Q1001.1110771411204 504.1637498242884 1006.3013882857645 509.82118897195045L1006.3013882857645 509.82118897195045Q1008.2996580764525 508.8350298544681 1010.0903154213547 507.17413028818197Q1011.8809727662568 505.5391822776191 1014.7096923400879 502.4249955908326L1014.7096923400879 502.4249955908326L1016.7079621307759 500.348871132975L1027.919034203207 508.8350298544681Q1027.2961968658497 525.0547521814808 1020.9380657136609 533.5928140144204Q1014.605886117195 542.1308758473598 1004.1993122721836 542.1308758473598L1004.1993122721836 542.1308758473598Q992.8065793096899 542.1308758473598 987.045333939135 535.20181046926Q981.3100401243033 528.2467935354368 978.6629814405348 515.5824343425054L978.6629814405348 515.5824343425054Q968.6197293756485 526.4301846348114 961.015923548745 533.7744749044828Q953.3861661661182 541.1187651741542 951.0245745953051 542.2087305145294L951.0245745953051 542.2087305145294Q945.9899727850004 542.2087305145294 941.4224989777136 541.0409105069846Q936.88097672615 539.8471389437163 934.6750944896763 537.2779349271175L934.6750944896763 537.2779349271175Q933.6889353721939 524.3281086212306 933.351565147792 511.6118463168526Q933.0401464791134 498.86963245675145 933.0401464791134 481.45613856647054L933.0401464791134 481.45613856647054ZM1037.4173035979056 487.3730932713648Q1037.4173035979056 471.5945473916468 1042.7114209654428 459.1897037559475Q1048.0055383329795 446.78486012024814 1059.0868526267946 439.5184245177465Q1070.1681669206096 432.27794047096796 1086.7771625834707 432.27794047096796L1086.7771625834707 432.27794047096796Q1095.4449821950266 432.27794047096796 1104.112801806582 434.3281133731024Q1112.7806214181378 436.3782862752368 1118.8013823459246 441.1274209725861L1118.8013823459246 441.1274209725861Q1124.355015270694 445.59108855698 1126.8723161758462 452.9353788266514Q1129.3896170809985 460.2796690963227 1129.3896170809985 469.23295582083375L1129.3896170809985 469.23295582083375Q1129.3896170809985 475.149910525728 1128.3775064077931 481.3523323435777L1128.3775064077931 481.3523323435777Q1127.2875410674178 483.1948927999263 1124.0954997134618 486.15337015237344Q1120.9034583595057 489.11184750482056 1116.5955001094512 491.9405670786516Q1112.3134934151199 494.7692866524826 1108.3169538337438 496.3263799958758L1108.3169538337438 496.3263799958758Q1104.4761235867072 496.58589555310806 1100.3757777824385 496.58589555310806L1100.3757777824385 496.58589555310806Q1093.1612452913832 496.58589555310806 1085.7650519102654 495.9630582157507Q1078.3688585291475 495.3142693226702 1072.8152256043782 494.5097710952504L1072.8152256043782 494.5097710952504Q1073.5418691646287 502.24333470077005 1077.5643603017274 508.004580071325Q1081.5608998831035 513.7398738861567 1090.332525717552 513.7398738861567L1090.332525717552 513.7398738861567Q1091.1629755006952 513.7398738861567 1092.9795844013206 513.5582129960942L1092.9795844013206 513.5582129960942Q1098.5332173260895 513.0132303259065 1105.9813138186541 510.599735643647Q1113.4034587554947 508.18624096138757 1120.7996521366126 504.9941996074314L1120.7996521366126 504.9941996074314Q1124.2771606035244 508.471708074343 1125.9121086140872 511.92326498553126Q1127.54705662465 515.4007734524428 1128.1958455177305 521.8627108275247L1128.1958455177305 521.8627108275247Q1125.3671259438997 525.1585584043737 1119.0349463474336 529.907693101723Q1112.6768151952447 534.6568277990723 1103.5678191363945 538.4198033789393Q1094.4328715218207 542.2087305145294 1084.4934256798274 542.2087305145294L1084.4934256798274 542.2087305145294Q1069.5193780275295 542.2087305145294 1058.9051917367324 534.968246467751Q1048.2650538902117 527.7018108652492 1042.8411787440587 515.2450641181035Q1037.4173035979056 502.8142689266809 1037.4173035979056 487.3730932713648L1037.4173035979056 487.3730932713648ZM1097.4432519857146 476.44748831188906L1096.1716257552766 466.40423624700276Q1094.8999995248387 465.02880379367207 1091.8896190609453 464.2502571219755Q1088.8792385970519 463.47171045027886 1085.5833910202027 463.47171045027886L1085.5833910202027 463.47171045027886Q1082.9363323364341 463.47171045027886 1080.2633220969424 463.9388384532968Q1077.5643603017274 464.38001490059156 1077.01937763154 464.9509491265024L1077.01937763154 464.9509491265024Q1073.9051909447535 471.0495647214592 1073.1006927173335 478.80907988270206L1073.1006927173335 478.80907988270206L1097.4432519857146 476.44748831188906ZM1150.6439412183163 515.9457561226304Q1150.6439412183163 512.0270712084241 1150.825602108379 496.6897017760009L1150.825602108379 496.6897017760009Q1151.085117665611 466.5858971370653 1151.085117665611 463.7571775632343L1151.085117665611 463.7571775632343L1142.702765167011 462.3817451099036Q1140.964010933555 457.19143396525953 1140.237367373305 452.62396015797276Q1139.5107238130545 448.056486350686 1139.5107238130545 443.41115787622954L1139.5107238130545 443.41115787622954Q1139.5107238130545 441.49074275271124 1139.5885784802244 440.47863207950564L1139.5885784802244 440.47863207950564Q1141.1456718236177 439.1291511818982 1144.4415194004664 437.2087360583799Q1147.7114154215924 435.28832093486153 1152.2010345617095 433.7831307029148Q1156.6647021461035 432.27794047096796 1161.3100306205597 432.27794047096796L1161.3100306205597 432.27794047096796Q1172.183732468589 432.27794047096796 1177.0626249445545 437.104929835487Q1181.94151742052 441.9578707557292 1181.94151742052 451.2485277046421L1181.94151742052 451.2485277046421Q1181.94151742052 456.9059668523041 1180.5141818557427 465.7035442424758Q1179.1127978466889 474.5270731883707 1177.6335591704656 478.26409721251446L1177.6335591704656 478.26409721251446L1180.9294067473143 478.80907988270206L1186.405185004914 458.1775930827419Q1190.064354361888 444.24160765937256 1195.5401326194874 438.24679828730865Q1200.9899593213636 432.27794047096796 1207.841170032294 432.27794047096796L1207.841170032294 432.27794047096796Q1212.3048376166876 432.27794047096796 1216.7425536453584 433.65337292429865Q1221.154318118306 435.0028538219061 1223.541861244842 437.0270751683173L1223.541861244842 437.0270751683173Q1226.085113705718 442.68451431597936 1226.085113705718 452.0789774877851L1226.085113705718 452.0789774877851Q1226.085113705718 458.64472108575984 1224.81348747528 465.0807069051185Q1223.541861244842 471.5166927244772 1221.5176398984308 475.43537763868346L1221.5176398984308 475.43537763868346L1202.3653917746942 472.86617362208466Q1196.5262917369696 479.0685954399343 1189.960548138995 490.0720550665797Q1183.3948045410202 501.07551469322516 1179.4761196268141 510.2883169749684L1179.4761196268141 510.2883169749684L1179.372313403921 515.0374516723177L1197.0712744071575 510.83329964515605Q1201.5608935472746 517.6845103560862 1202.2875371075247 527.078973527892L1202.2875371075247 527.078973527892Q1202.2875371075247 527.6239561980797 1198.1612397475328 531.5426411122859Q1194.060893943264 535.4613260264921 1187.365392566673 538.7831251590644Q1180.643939634359 542.1308758473598 1171.9761200228036 542.1308758473598L1171.9761200228036 542.1308758473598Q1163.0487848540156 542.1308758473598 1157.0799270376747 537.329838038564Q1151.085117665611 532.5547517854914 1150.7217958854858 521.1360672672745L1150.7217958854858 521.1360672672745Q1150.6439412183163 519.7606348139439 1150.6439412183163 515.9457561226304L1150.6439412183163 515.9457561226304ZM1232.1058746335048 401.888668719077Q1235.8428986576487 398.25545091782607 1240.8775004679533 396.02361712562913Q1245.8861507225347 393.76583177770897 1251.1024134229024 393.5063162204768L1251.1024134229024 393.5063162204768Q1255.6439356744659 393.3246553304142 1259.7183299230114 395.06340956387Q1263.7667726158338 396.77621224160254 1266.6992984125577 400.53918782146945L1266.6992984125577 400.53918782146945Q1265.9726548523076 411.20527722371304 1263.1439352784764 426.12742176456476Q1260.3152157046457 441.02361474969325 1257.2010290178591 450.6256903672848L1257.2010290178591 450.6256903672848L1241.6041440282033 450.6256903672848Q1235.8428986576487 428.1775946666992 1232.1058746335048 401.888668719077L1232.1058746335048 401.888668719077ZM1287.0453180995623 508.18624096138757Q1295.0643488180376 511.37828231534365 1299.8913381825564 513.1170365487994Q1304.7442791027988 514.8557907822551 1310.5314760290767 516.1274170126931Q1316.318672955355 517.3990432431308 1322.07991832591 517.3990432431308L1322.07991832591 517.3990432431308Q1324.6231707867855 517.3990432431308 1325.7131361271609 516.9319152401129L1325.7131361271609 516.9319152401129Q1325.9986032401162 516.5685934599877 1326.2321672416251 515.8159983440144Q1326.439779687411 515.0374516723177 1326.439779687411 514.2070018891746L1326.439779687411 514.2070018891746Q1326.439779687411 512.3903929885493 1324.3636552295534 511.1966214252811L1324.3636552295534 511.1966214252811Q1321.0678076527042 509.3800125246557 1312.6854551541041 505.4613276104494L1312.6854551541041 505.4613276104494Q1301.1889159687175 499.9855493528499 1294.4674630364034 495.6775911027953Q1287.7719616598124 491.395584408464 1283.1525847410794 484.2848581403016Q1278.5591593780696 477.1741318721392 1278.5591593780696 466.40423624700276L1278.5591593780696 466.40423624700276Q1278.5591593780696 450.9890121474098 1287.7719616598124 441.6205005313273Q1296.9847639415557 432.27794047096796 1316.9674618484355 432.27794047096796L1316.9674618484355 432.27794047096796Q1340.7650384466288 432.27794047096796 1354.0003318654708 438.4803622888176L1354.0003318654708 438.4803622888176Q1354.6491207585514 441.1274209725861 1354.6491207585514 445.14991210968526L1354.6491207585514 445.14991210968526Q1354.6491207585514 452.8056210480353 1352.2615776320154 460.79870021078716Q1349.899986061202 468.7658278178158 1346.0591558141655 472.6066580648524L1346.0591558141655 472.6066580648524Q1340.8688446695214 470.86790383139663 1331.3705752748228 467.02707358436004L1331.3705752748228 467.02707358436004Q1324.441509896723 464.30216023342194 1320.3930672039005 462.79697000147513Q1316.318672955355 461.2917797695283 1312.9449707113363 460.64299087644787L1312.9449707113363 460.64299087644787Q1311.1283618107109 461.1101188794658 1310.0383964703356 462.79697000147513Q1308.922479574237 464.48382112348446 1308.922479574237 466.76755802712785L1308.922479574237 466.76755802712785Q1308.922479574237 468.7658278178158 1310.1162511375055 470.1412602711465Q1311.3100227007735 471.5166927244772 1312.81521293272 472.29523939617377Q1314.320403164667 473.0478345121472 1317.1491227384981 474.3454122983082L1317.1491227384981 474.3454122983082Q1318.6024098589983 474.9682496356655 1319.8740360894362 475.48728075012986Q1321.171613875597 475.98036030887107 1322.2615792159722 476.44748831188906L1322.2615792159722 476.44748831188906Q1329.3723054841348 479.4578687757826 1333.4726512884035 481.3523323435777Q1337.5729970926727 483.272747467096 1341.4138273397089 485.9198061508645L1341.4138273397089 485.9198061508645Q1348.446698940702 490.7467955153835 1352.4432385220775 496.9751688889563Q1356.4657296591768 503.17759070680603 1356.4657296591768 510.54783253220063L1356.4657296591768 510.54783253220063Q1356.4657296591768 520.7727454871495 1350.678532732899 528.2208419797137Q1344.8913358066206 535.6429869165547 1335.86019441494 539.0166891605734L1335.86019441494 539.0166891605734Q1331.1110597175907 540.755443394029 1325.505523681375 541.5339900657257Q1319.8740360894362 542.3125367374223 1312.3999880411488 542.3125367374223L1312.3999880411488 542.3125367374223Q1303.5505075395304 542.3125367374223 1294.2079474791713 538.8869313819573Q1284.8394358630885 535.4613260264921 1279.9086402756766 527.442295308017L1279.9086402756766 527.442295308017Q1280.0124464985697 521.8627108275247 1281.4138305076235 517.7104619118095Q1282.841166072401 513.5582129960942 1287.0453180995623 508.18624096138757L1287.0453180995623 508.18624096138757ZM1406.656038427885 520.4094237070244Q1406.656038427885 515.7640952325679 1408.3688411056178 511.01496053521856Q1410.1075953390732 506.2658258378693 1413.7667646960476 502.06167381070753L1413.7667646960476 502.06167381070753Q1427.0799127820596 507.90077384843215 1436.9934070683298 511.01496053521856Q1446.8809497988768 514.1031956662819 1457.3653783110576 514.1031956662819L1457.3653783110576 514.1031956662819Q1459.2857934345757 514.1031956662819 1461.3359663367105 513.7398738861567Q1463.3861392388449 513.3765521060316 1464.5799108021129 512.7537147686744L1464.5799108021129 512.7537147686744Q1465.0470388051308 511.74160409546874 1465.306554362363 510.1585591963523Q1465.5920214753187 508.54956274151266 1465.5920214753187 507.53745206830706L1465.5920214753187 507.53745206830706Q1465.5920214753187 503.07378448391313 1461.3100147809873 499.88174312995704Q1457.0020565309328 496.6897017760009 1449.995136485663 493.4976604220448L1449.995136485663 493.4976604220448L1446.8030951317069 491.9405670786516Q1433.1006737098464 484.9076954776589 1424.8480789898626 479.3021594414433Q1416.5954842698784 473.6966234052277 1410.88614201077 464.5357242349309Q1405.1767997516617 455.34887350891086 1405.1767997516617 442.03572542289885L1405.1767997516617 442.03572542289885Q1405.1767997516617 422.52015551903713 1416.1024047111373 410.7381492206951Q1427.0020581148897 398.98209447807625 1450.799634713083 398.98209447807625L1450.799634713083 398.98209447807625Q1471.1456544000876 398.98209447807625 1483.0055153655994 401.4474922717822L1483.0055153655994 401.4474922717822Q1487.9363109530113 404.3540665127829 1491.6214318657085 407.4942047552925Q1495.3325043341288 410.66029455352543 1498.7062065781479 415.1239621379193L1498.7062065781479 415.1239621379193Q1498.7062065781479 421.50804484583153 1497.460531903433 428.95614133839575Q1496.240808784442 436.3782862752368 1494.0868296594144 442.58070809308646Q1491.9588020901106 448.7831299109361 1489.4934042964042 451.5339948175975L1489.4934042964042 451.5339948175975Q1487.3913282828235 452.52015393507986 1484.848075821948 453.0391850495443Q1482.2788718053494 453.53226460828546 1478.5418477812054 453.53226460828546L1478.5418477812054 453.53226460828546Q1474.6231628669993 453.53226460828546 1472.1577650732934 452.98728193809785Q1469.6923672795874 452.4422992679102 1467.5902912660063 451.1706730374724L1467.5902912660063 451.1706730374724L1464.7615716921755 432.17413424807506Q1459.4674543246383 430.72084712757476 1453.5504996197442 430.046106678771Q1447.607593359127 429.34541467424407 1445.5055173455457 429.44922089713697L1445.5055173455457 429.44922089713697Q1442.131815101527 431.0063142405302 1440.912091982536 433.7831307029148Q1439.6664173078216 436.5599471652993 1439.6664173078216 440.40077741233597L1439.6664173078216 440.40077741233597Q1439.6664173078216 444.50112321660475 1441.8982511000181 447.4596005690519Q1444.1560364479387 450.4440294772223 1447.3480778018948 452.33849304501734Q1450.5401191558508 454.25890816853564 1455.5487694104322 456.6464512950719L1455.5487694104322 456.6464512950719L1459.5712605475314 458.64472108575984Q1472.5989415205881 465.49593179669006 1480.0989411245987 470.60838827416444Q1487.572989172886 475.69489319591565 1492.6335425389143 483.50631146860496Q1497.694095904942 491.31772974129433 1497.694095904942 502.34714092366295L1497.694095904942 502.34714092366295Q1497.694095904942 515.2191125623802 1490.9466914169047 524.48381795557Q1484.1992869288674 533.7225717930364 1473.6110521937935 537.8488691530284L1473.6110521937935 537.8488691530284Q1467.875758378962 540.1066545009486 1460.920741445139 541.1187651741542Q1453.991676067039 542.1308758473598 1444.8826800081883 542.1308758473598L1444.8826800081883 542.1308758473598Q1438.680258190339 542.1308758473598 1431.5435803664532 540.5737825039666Q1424.432854098291 539.0166891605734 1417.7373527217 535.098004246367Q1411.0158997893864 531.1793193321607 1407.0193602080103 524.613575734186L1407.0193602080103 524.613575734186Q1406.656038427885 522.8748215007303 1406.656038427885 520.4094237070244L1406.656038427885 520.4094237070244ZM1516.405167581384 490.0201519551333Q1516.405167581384 475.149910525728 1516.8722955844019 462.9267277800912L1516.8722955844019 462.9267277800912L1506.9068981866853 461.1879735466355Q1505.7390781791405 456.6464512950719 1505.2719501761226 453.16894282816037Q1504.8048221731046 449.6914343612488 1504.8048221731046 445.7727494470426L1504.8048221731046 445.7727494470426L1505.0124346188904 443.95614054641715Q1505.2719501761226 442.68451431597936 1505.2719501761226 441.8540645328363L1505.2719501761226 441.8540645328363L1518.507243594965 438.9474902918356Q1518.9484200422594 433.29005114417356 1520.6093196085458 426.153373320288Q1522.2442676191085 419.0426470521256 1524.060876519734 415.6689448081069L1524.060876519734 415.6689448081069Q1526.9934023164578 413.4890141273564 1531.0937481207266 412.39904878698115Q1535.1940939249953 411.2831318908827 1539.9432286223446 411.2831318908827L1539.9432286223446 411.2831318908827Q1543.9657197594438 411.2831318908827 1547.754646895034 412.0616785625793Q1551.5176224749011 412.8402252342759 1554.3463420487324 414.11185146471377L1554.3463420487324 414.11185146471377Q1554.6318091616877 417.2260381515002 1554.6318091616877 421.24852928859934L1554.6318091616877 421.24852928859934Q1554.6318091616877 427.8142728865741 1553.983020268607 436.1187707180046L1553.983020268607 436.1187707180046L1570.0470332612804 433.18624492128066Q1573.420735505299 439.0253449590053 1573.420735505299 445.87655566993544L1573.420735505299 445.87655566993544Q1573.420735505299 450.6256903672848 1572.2788670534774 454.44056905859816Q1571.1369986016557 458.2813993056348 1569.1387288109677 463.1083886701538L1569.1387288109677 463.1083886701538Q1563.1179678831804 464.12049934335937 1552.6335393709996 464.38001490059156L1552.6335393709996 464.38001490059156Q1551.3359615848385 479.27620788572005 1546.9761002233377 508.08243473849467L1546.9761002233377 508.08243473849467L1546.5089722203197 511.1966214252811L1546.6906331103824 511.37828231534365L1568.1266181377623 504.708732494476Q1574.7961679586297 510.2883169749684 1576.2494550791303 521.8627108275247L1576.2494550791303 521.8627108275247Q1576.2494550791303 522.5114997206051 1570.3584519299593 527.8575201995886Q1564.4934003365115 533.1775891228488 1555.643919834893 537.6931598186891Q1546.794439333275 542.2087305145294 1536.3878654882637 542.2087305145294L1536.3878654882637 542.2087305145294Q1518.2217764820093 542.2087305145294 1517.0539564744645 520.0461019268992L1517.0539564744645 520.0461019268992Q1516.405167581384 508.8350298544681 1516.405167581384 490.0201519551333L1516.405167581384 490.0201519551333ZM1591.664679178723 515.9457561226304Q1591.664679178723 512.0270712084241 1591.8463400687856 496.6897017760009L1591.8463400687856 496.6897017760009Q1592.131807181741 466.5858971370653 1592.131807181741 463.7571775632343L1592.131807181741 463.7571775632343L1583.7235031274176 462.3817451099036Q1582.010700449685 457.19143396525953 1581.2840568894349 452.62396015797276Q1580.5314617734616 448.056486350686 1580.5314617734616 443.41115787622954L1580.5314617734616 443.41115787622954Q1580.5314617734616 441.49074275271124 1580.6352679963543 440.47863207950564L1580.6352679963543 440.47863207950564Q1582.1923613397475 439.1291511818982 1585.4622573608735 437.2087360583799Q1588.7581049377222 435.28832093486153 1593.2217725221162 433.7831307029148Q1597.6854401065102 432.27794047096796 1602.35672013669 432.27794047096796L1602.35672013669 432.27794047096796Q1613.204470428996 432.27794047096796 1618.0833629049612 437.104929835487Q1622.9622553809268 441.9578707557292 1622.9622553809268 451.2485277046421L1622.9622553809268 451.2485277046421Q1622.9622553809268 456.9059668523041 1621.560871371873 465.7035442424758Q1620.133535807096 474.5270731883707 1618.6802486865954 478.26409721251446L1618.6802486865954 478.26409721251446L1621.9760962634446 478.80907988270206L1627.4259229653208 458.1775930827419Q1631.0850923222947 444.24160765937256 1636.5608705798945 438.24679828730865Q1642.0366488374939 432.27794047096796 1648.8878595484239 432.27794047096796L1648.8878595484239 432.27794047096796Q1653.3515271328179 432.27794047096796 1657.7632916057655 433.65337292429865Q1662.2010076344359 435.0028538219061 1664.5625992052492 437.0270751683173L1664.5625992052492 437.0270751683173Q1667.1318032218478 442.68451431597936 1667.1318032218478 452.0789774877851L1667.1318032218478 452.0789774877851Q1667.1318032218478 458.64472108575984 1665.8601769914103 465.0807069051185Q1664.5625992052492 471.5166927244772 1662.5643294145611 475.43537763868346L1662.5643294145611 475.43537763868346L1643.4120812908245 472.86617362208466Q1637.5729812531 479.0685954399343 1631.0072376551252 490.0720550665797Q1624.415542501427 501.07551469322516 1620.4968575872208 510.2883169749684L1620.4968575872208 510.2883169749684L1620.4190029200513 515.0374516723177L1638.1179639232878 510.83329964515605Q1642.5816315076813 517.6845103560862 1643.3082750679314 527.078973527892L1643.3082750679314 527.078973527892Q1643.3082750679314 527.6239561980797 1639.2079292636627 531.5426411122859Q1635.107583459394 535.4613260264921 1628.3861305270798 538.7831251590644Q1621.6906291504888 542.1308758473598 1613.0228095389334 542.1308758473598L1613.0228095389334 542.1308758473598Q1604.0695228144223 542.1308758473598 1598.1006649980818 537.329838038564Q1592.131807181741 532.5547517854914 1591.768485401616 521.1360672672745L1591.768485401616 521.1360672672745Q1591.664679178723 519.7606348139439 1591.664679178723 515.9457561226304L1591.664679178723 515.9457561226304ZM1673.7754014869925 487.3730932713648Q1673.7754014869925 471.5945473916468 1679.0695188545292 459.1897037559475Q1684.3636362220664 446.78486012024814 1695.4449505158814 439.5184245177465Q1706.5522163654196 432.27794047096796 1723.1352604725575 432.27794047096796L1723.1352604725575 432.27794047096796Q1731.803080084113 432.27794047096796 1740.4708996956688 434.3281133731024Q1749.1387193072242 436.3782862752368 1755.1594802350114 441.1274209725861L1755.1594802350114 441.1274209725861Q1760.739064715504 445.59108855698 1763.2304140649326 452.9353788266514Q1765.7477149700853 460.2796690963227 1765.7477149700853 469.23295582083375L1765.7477149700853 469.23295582083375Q1765.7477149700853 475.149910525728 1764.7356042968795 481.3523323435777L1764.7356042968795 481.3523323435777Q1763.6456389565046 483.1948927999263 1760.4535976025481 486.15337015237344Q1757.2615562485921 489.11184750482056 1752.9795495542608 491.9405670786516Q1748.6975428599294 494.7692866524826 1744.6750517228302 496.3263799958758L1744.6750517228302 496.3263799958758Q1740.8342214757936 496.58589555310806 1736.7338756715249 496.58589555310806L1736.7338756715249 496.58589555310806Q1729.5193431804696 496.58589555310806 1722.149101355075 495.9630582157507Q1714.752907973957 495.3142693226702 1709.173323493465 494.5097710952504L1709.173323493465 494.5097710952504Q1709.9259186094382 502.24333470077005 1713.9224581908143 508.004580071325Q1717.9449493279135 513.7398738861567 1726.6906236066384 513.7398738861567L1726.6906236066384 513.7398738861567Q1727.5210733897816 513.7398738861567 1729.337682290407 513.5582129960942L1729.337682290407 513.5582129960942Q1734.9172667708995 513.0132303259065 1742.3394117077405 510.599735643647Q1749.7875082003047 508.18624096138757 1757.1837015814226 504.9941996074314L1757.1837015814226 504.9941996074314Q1760.6352584926108 508.471708074343 1762.2961580588967 511.92326498553126Q1763.93110606946 515.4007734524428 1764.5539434068169 521.8627108275247L1764.5539434068169 521.8627108275247Q1761.725223832986 525.1585584043737 1755.3930442365204 529.907693101723Q1749.0608646400547 534.6568277990723 1739.9259170254809 538.4198033789393Q1730.8169209666307 542.2087305145294 1720.8515235689142 542.2087305145294L1720.8515235689142 542.2087305145294Q1705.903427472339 542.2087305145294 1695.2632896258187 534.968246467751Q1684.6491033350217 527.7018108652492 1679.2252281888686 515.2450641181035Q1673.7754014869925 502.8142689266809 1673.7754014869925 487.3730932713648L1673.7754014869925 487.3730932713648ZM1733.8273014305241 476.44748831188906L1732.529723644363 466.40423624700276Q1731.2580974139255 465.02880379367207 1728.2477169500316 464.2502571219755Q1725.2373364861382 463.47171045027886 1721.9674404650127 463.47171045027886L1721.9674404650127 463.47171045027886Q1719.3203817812441 463.47171045027886 1716.6214199860292 463.9388384532968Q1713.9224581908143 464.38001490059156 1713.3774755206264 464.9509491265024L1713.3774755206264 464.9509491265024Q1710.2892403895635 471.0495647214592 1709.4587906064203 478.80907988270206L1709.4587906064203 478.80907988270206L1733.8273014305241 476.44748831188906ZM1777.7113821584899 487.3730932713648Q1777.7113821584899 471.5945473916468 1783.0054995260266 459.1897037559475Q1788.2996168935638 446.78486012024814 1799.3809311873788 439.5184245177465Q1810.4622454811938 432.27794047096796 1827.071241144055 432.27794047096796L1827.071241144055 432.27794047096796Q1835.7390607556104 432.27794047096796 1844.4068803671662 434.3281133731024Q1853.0746999787216 436.3782862752368 1859.0954609065088 441.1274209725861L1859.0954609065088 441.1274209725861Q1864.6490938312782 445.59108855698 1867.1663947364304 452.9353788266514Q1869.6577440858596 460.2796690963227 1869.6577440858596 469.23295582083375L1869.6577440858596 469.23295582083375Q1869.6577440858596 475.149910525728 1868.671584968377 481.3523323435777L1868.671584968377 481.3523323435777Q1867.581619628002 483.1948927999263 1864.389578274046 486.15337015237344Q1861.19753692009 489.11184750482056 1856.889578670035 491.9405670786516Q1852.6075719757036 494.7692866524826 1848.5850808386044 496.3263799958758L1848.5850808386044 496.3263799958758Q1844.770202147291 496.58589555310806 1840.643904787299 496.58589555310806L1840.643904787299 496.58589555310806Q1833.455323851967 496.58589555310806 1826.0591304708491 495.9630582157507Q1818.6629370897317 495.3142693226702 1813.1093041649624 494.5097710952504L1813.1093041649624 494.5097710952504Q1813.8359477252125 502.24333470077005 1817.8584388623117 508.004580071325Q1821.8549784436877 513.7398738861567 1830.6266042781363 513.7398738861567L1830.6266042781363 513.7398738861567Q1831.4311025055563 513.7398738861567 1833.2736629619048 513.5582129960942L1833.2736629619048 513.5582129960942Q1838.8272958866737 513.0132303259065 1846.275392379238 510.599735643647Q1853.697537316079 508.18624096138757 1861.0937306971969 504.9941996074314L1861.0937306971969 504.9941996074314Q1864.5712391641086 508.471708074343 1866.2061871746714 511.92326498553126Q1867.8411351852342 515.4007734524428 1868.4899240783147 521.8627108275247L1868.4899240783147 521.8627108275247Q1865.6612045044835 525.1585584043737 1859.3030733522946 529.907693101723Q1852.970893755829 534.6568277990723 1843.8618976969783 538.4198033789393Q1834.726950082405 542.2087305145294 1824.7875042404116 542.2087305145294L1824.7875042404116 542.2087305145294Q1809.8134565881132 542.2087305145294 1799.1992702973162 534.968246467751Q1788.559132450796 527.7018108652492 1783.135257304643 515.2450641181035Q1777.7113821584899 502.8142689266809 1777.7113821584899 487.3730932713648L1777.7113821584899 487.3730932713648ZM1837.7373305462984 476.44748831188906L1836.4657043158609 466.40423624700276Q1835.194078085423 465.02880379367207 1832.183697621529 464.2502571219755Q1829.1733171576357 463.47171045027886 1825.877469580787 463.47171045027886L1825.877469580787 463.47171045027886Q1823.2304108970184 463.47171045027886 1820.5314491018034 463.9388384532968Q1817.8584388623117 464.38001490059156 1817.2875046364006 464.9509491265024L1817.2875046364006 464.9509491265024Q1814.1992695053377 471.0495647214592 1813.3688197221945 478.80907988270206L1813.3688197221945 478.80907988270206L1837.7373305462984 476.44748831188906ZM1889.0954593225515 490.0201519551333Q1889.0954593225515 475.149910525728 1889.5625873255694 462.9267277800912L1889.5625873255694 462.9267277800912L1879.623141483576 461.1879735466355Q1878.429369920308 456.6464512950719 1877.9622419172902 453.16894282816037Q1877.5210654699954 449.6914343612488 1877.5210654699954 445.7727494470426L1877.5210654699954 445.7727494470426L1877.702726360058 443.95614054641715Q1877.9622419172902 442.68451431597936 1877.9622419172902 441.8540645328363L1877.9622419172902 441.8540645328363L1891.1975353361327 438.9474902918356Q1891.6646633391506 433.29005114417356 1893.2996113497134 426.153373320288Q1894.9345593602761 419.0426470521256 1896.7771198166247 415.6689448081069L1896.7771198166247 415.6689448081069Q1899.6836940576254 413.4890141273564 1903.7840398618946 412.39904878698115Q1907.9103372218865 411.2831318908827 1912.6335203635122 411.2831318908827L1912.6335203635122 411.2831318908827Q1916.6560115006114 411.2831318908827 1920.4449386362016 412.0616785625793Q1924.233865771792 412.8402252342759 1927.0625853456231 414.11185146471377L1927.0625853456231 414.11185146471377Q1927.3221009028553 417.2260381515002 1927.3221009028553 421.24852928859934L1927.3221009028553 421.24852928859934Q1927.3221009028553 427.8142728865741 1926.6992635654979 436.1187707180046L1926.6992635654979 436.1187707180046L1942.737325002448 433.18624492128066Q1946.1369788021902 439.0253449590053 1946.1369788021902 445.87655566993544L1946.1369788021902 445.87655566993544Q1946.1369788021902 450.6256903672848 1944.9951103503681 454.44056905859816Q1943.853241898547 458.2813993056348 1941.8290205521353 463.1083886701538L1941.8290205521353 463.1083886701538Q1935.8082596243485 464.12049934335937 1925.3238311121672 464.38001490059156L1925.3238311121672 464.38001490059156Q1924.0522048817293 479.27620788572005 1919.6663919645052 508.08243473849467L1919.6663919645052 508.08243473849467L1919.1992639614873 511.1966214252811L1919.38092485155 511.37828231534365L1940.842861434653 504.708732494476Q1947.4864596997973 510.2883169749684 1948.965698376021 521.8627108275247L1948.965698376021 521.8627108275247Q1948.965698376021 522.5114997206051 1943.07469522685 527.8575201995886Q1937.183692077679 533.1775891228488 1928.3342115760606 537.6931598186891Q1919.4847310744426 542.2087305145294 1909.0781572294313 542.2087305145294L1909.0781572294313 542.2087305145294Q1890.9380197789 542.2087305145294 1889.744248215632 520.0461019268992L1889.744248215632 520.0461019268992Q1889.0954593225515 508.8350298544681 1889.0954593225515 490.0201519551333L1889.0954593225515 490.0201519551333Z " fill="#fad744" transform="matrix(0.4489560894053963,0,0,0.4489560894053962,0,90.1971897988841)"/></g></svg>